<?xml version="1.0" encoding="UTF-8"?> <svg xmlns="http://www.w3.org/2000/svg" width="369" height="89" viewBox="0 0 369 89" fill="none"> <path d="M166.968 46.7482C165.316 46.7482 163.401 46.4183 161.287 45.6903L162.212 37.0666C162.515 37.1346 162.801 37.169 163.071 37.169C167.827 37.169 168.487 26.9979 169.082 14.3142H196.165V46.0225H184.935V22.9013H179.321C178.528 36.1134 175.951 46.7482 166.968 46.7482Z" fill="#2A2929"></path> <path d="M252.531 38.4261C257.484 38.4261 258.145 34.0668 258.145 31.8198C258.145 29.5748 257.484 25.2155 252.531 25.2155C247.577 25.2155 246.915 29.5748 246.915 31.8198C246.915 34.0668 247.577 38.4261 252.531 38.4261ZM252.531 47.0147C243.35 47.0147 235.356 42.059 235.356 27.5263C235.356 15.8355 239.384 9.69298 245.065 6.1251C253.12 1.10627 260.658 2.48088 265.266 0L266.932 8.70047C262.835 12.3995 257.288 10.4844 251.803 13.1924C248.568 14.778 246.915 18.4781 246.915 21.0539C248.764 18.7408 251.737 16.6269 256.494 16.6269C264.025 16.6269 269.706 21.9126 269.706 31.8198C269.706 42.059 262.043 47.0147 252.531 47.0147Z" fill="#2A2929"></path> <path d="M293.872 14.3142H305.432L292.154 49.3255C288.521 58.8367 283.038 61.4143 277.622 61.4143C275.64 61.4143 273.658 61.0163 271.809 60.5552L273.932 51.6941C274.65 51.7848 275.376 51.8351 276.104 51.8351C278.876 51.8351 281.189 50.2503 282.708 46.814L267.78 14.3142H279.67L287.397 33.2062L293.872 14.3142Z" fill="#2A2929"></path> <path d="M308.092 46.0225V14.3142H332.798V23.5635H319.321V46.0225H308.092Z" fill="#2A2929"></path> <path d="M348.773 39.4163C350.622 39.4163 352.274 39.021 353.993 37.7639V33.4726C353 33.1404 351.481 32.8762 349.962 32.8762C347.319 32.8762 344.943 33.8003 344.943 36.3122C344.943 37.9627 346.396 39.4163 348.773 39.4163ZM367.4 38.9529L368.656 45.6903C367.137 46.2852 365.089 46.6825 362.975 46.6825C359.473 46.6825 356.898 45.4277 355.444 43.1826C352.406 45.5592 348.906 47.0132 344.413 47.0132C338.337 47.0132 333.381 43.3795 333.381 37.237C333.381 29.2448 340.977 26.801 347.122 26.801C349.501 26.801 351.879 27.0629 353.993 27.5263V26.403C353.993 24.1576 351.879 22.4394 347.387 22.4394C344.039 22.4394 340.908 23.2082 338.194 24.1618L336.288 15.4379C338.931 14.5788 343.952 13.324 348.642 13.324C358.748 13.324 365.22 16.8238 365.22 28.1212V36.9725C365.22 38.4918 366.278 38.9529 367.4 38.9529Z" fill="#2A2929"></path> <path d="M214.914 39.4163C216.763 39.4163 218.415 39.021 220.134 37.7639V33.4726C219.142 33.1404 217.622 32.8762 216.103 32.8762C213.46 32.8762 211.084 33.8003 211.084 36.3122C211.084 37.9627 212.537 39.4163 214.914 39.4163ZM233.543 38.9529L234.798 45.6903C233.278 46.2852 231.23 46.6825 229.116 46.6825C225.616 46.6825 223.039 45.4277 221.586 43.1826C218.547 45.5592 215.047 47.0132 210.555 47.0132C204.477 47.0132 199.522 43.3795 199.522 37.237C199.522 29.2448 207.119 26.801 213.263 26.801C215.641 26.801 218.02 27.0629 220.134 27.5263V26.403C220.134 24.1576 218.02 22.4394 213.528 22.4394C210.18 22.4394 207.049 23.2082 204.335 24.1618L202.429 15.4379C205.072 14.5788 210.093 13.324 214.782 13.324C224.888 13.324 231.362 16.8238 231.362 28.1212V36.9725C231.362 38.4918 232.419 38.9529 233.543 38.9529Z" fill="#2A2929"></path> <path d="M139.392 39.4163C141.241 39.4163 142.894 39.021 144.612 37.7639V33.4726C143.62 33.1404 142.1 32.8762 140.581 32.8762C137.938 32.8762 135.562 33.8003 135.562 36.3122C135.562 37.9627 137.015 39.4163 139.392 39.4163ZM158.021 38.9529L159.275 45.6903C157.756 46.2852 155.708 46.6825 153.594 46.6825C150.092 46.6825 147.517 45.4277 146.063 43.1826C143.025 45.5592 139.525 47.0132 135.032 47.0132C128.956 47.0132 124 43.3795 124 37.237C124 29.2448 131.596 26.801 137.741 26.801C140.12 26.801 142.498 27.0629 144.612 27.5263V26.403C144.612 24.1576 142.498 22.4394 138.005 22.4394C134.658 22.4394 131.527 23.2082 128.812 24.1618L126.908 15.4379C129.55 14.5788 134.571 13.324 139.26 13.324C149.366 13.324 155.839 16.8238 155.839 28.1212V36.9725C155.839 38.4918 156.897 38.9529 158.021 38.9529Z" fill="#2A2929"></path> <path fill-rule="evenodd" clip-rule="evenodd" d="M140.918 83.497H138.803V67.1883H129.459V83.497H127.344V65.3027H140.918V83.497ZM163.499 74.3785C163.499 77.2921 162.761 79.581 161.291 81.2504C159.817 82.9194 157.77 83.7517 155.146 83.7517C152.466 83.7517 150.397 82.9319 148.945 81.2927C147.488 79.6535 146.758 77.3431 146.758 74.3573C146.758 71.393 147.488 69.0996 148.949 67.4687C150.41 65.8379 152.483 65.0222 155.171 65.0222C157.787 65.0222 159.826 65.8503 161.295 67.5111C162.765 69.1718 163.499 71.4607 163.499 74.3785ZM149 74.3743C149 76.8374 149.522 78.7064 150.572 79.9805C151.625 81.2546 153.149 81.8914 155.146 81.8914C157.163 81.8914 158.687 81.2587 159.715 79.9888C160.743 78.7189 161.257 76.8461 161.257 74.3743C161.257 71.9278 160.747 70.0721 159.72 68.8063C158.696 67.5409 157.18 66.9078 155.171 66.9078C153.154 66.9078 151.625 67.5451 150.572 68.8192C149.522 70.0932 149 71.9448 149 74.3743ZM182.781 83.497H180.666V67.1883H174.759L174.372 70.1741C173.867 74.1449 173.421 77.0457 173.034 78.8848C172.648 80.7194 172.142 81.9976 171.509 82.7199C170.881 83.4418 170.044 83.7944 168.999 83.7774C168.384 83.7774 167.832 83.6754 167.343 83.4671V81.6964C167.789 81.913 168.261 82.0192 168.749 82.0192C169.191 82.0192 169.573 81.8362 169.9 81.4753C170.227 81.1143 170.516 80.49 170.77 79.598C171.025 78.7064 171.344 77.0117 171.73 74.5187C172.113 72.0257 172.537 68.9552 173.005 65.3027H182.781V83.497ZM190.617 65.3027H192.592V75.419C192.592 77.288 192.537 78.974 192.418 80.4858H192.52L202.717 65.3027H205.032V83.497H203.04V73.4782C203.04 71.8133 203.112 70.0592 203.252 68.2288H203.142L192.928 83.497H190.617V65.3027ZM218.159 83.497H216.044V67.1883H210.285V65.3027H223.914V67.1883H218.159V83.497ZM238.324 83.497H228.187V65.3027H238.324V67.1883H230.302V73.0492H237.84V74.9095H230.302V81.6113H238.324V83.497ZM257.012 83.497H254.608L249.72 75.4953L244.746 83.497H242.504L248.552 73.9877L242.916 65.3027H245.256L249.771 72.5099L254.323 65.3027H256.574L250.938 73.9155L257.012 83.497Z" fill="#2B2A29"></path> <path d="M28.7289 15.745C28.9663 15.8773 29.2036 16.0122 29.4406 16.1483C29.5805 16.228 29.7184 16.3093 29.8586 16.3913C30.3364 16.6687 30.8179 16.9537 31.3013 17.2459C31.4022 17.3082 31.5031 17.3683 31.604 17.4284C31.8308 17.5664 32.0572 17.7081 32.284 17.8479C32.4522 17.9523 32.6185 18.0554 32.7848 18.1597C33.0059 18.2977 33.2273 18.4375 33.4484 18.5793C33.6257 18.6927 33.803 18.8057 33.9802 18.9209C34.1979 19.0604 34.4115 19.1991 34.628 19.342C34.8242 19.4694 35.0207 19.6005 35.2176 19.7313C35.5483 19.9512 35.8794 20.1739 36.212 20.3987C36.4441 20.5563 36.6743 20.714 36.9063 20.8734C37.1063 21.0114 37.3062 21.1516 37.5042 21.2911C37.7117 21.4347 37.9189 21.5795 38.126 21.7265C38.3259 21.8667 38.5262 22.0103 38.7262 22.1532C38.942 22.3074 39.1578 22.4635 39.3721 22.6207C39.5618 22.7591 39.7531 22.8955 39.9443 23.035C40.2274 23.2443 40.5124 23.4545 40.7973 23.6673C41.0241 23.8389 41.2524 24.0089 41.4822 24.182C41.7604 24.3929 42.0382 24.6035 42.3179 24.8178C42.4951 24.9557 42.6758 25.094 42.8527 25.2339C43.09 25.418 43.3289 25.6039 43.5677 25.7914C43.7484 25.9331 43.9291 26.0763 44.1097 26.2181C44.3629 26.4195 44.6162 26.6221 44.869 26.8251C45.03 26.9562 45.1914 27.0836 45.3524 27.2147C45.6782 27.4786 46.0036 27.7461 46.3294 28.0149C46.6514 27.7477 46.9742 27.4842 47.2977 27.2215C47.4682 27.0821 47.6398 26.9456 47.8114 26.8092C48.0522 26.613 48.2944 26.4195 48.5374 26.2271C48.7268 26.0786 48.9143 25.9293 49.1021 25.7808C49.3304 25.6024 49.5587 25.4251 49.7869 25.246C49.9733 25.1008 50.1623 24.9557 50.3501 24.811C50.6086 24.6125 50.8668 24.416 51.1253 24.2214C51.3929 24.0195 51.6605 23.8192 51.9239 23.6189C52.1858 23.4261 52.4462 23.2315 52.7063 23.0403C52.9047 22.8955 53.1046 22.7519 53.3027 22.6067C53.5102 22.4578 53.7154 22.3093 53.921 22.1623C54.1277 22.0137 54.3349 21.8648 54.5424 21.7197C54.7404 21.578 54.9366 21.44 55.1354 21.3036C55.3421 21.1565 55.5515 21.0114 55.7582 20.8682C55.9653 20.7264 56.1706 20.5866 56.3781 20.4448C56.7462 20.1954 57.1147 19.9478 57.4809 19.7052C57.6616 19.585 57.8423 19.4644 58.0225 19.3454C58.2455 19.1991 58.4685 19.0555 58.6919 18.9119C58.8601 18.8019 59.0302 18.6942 59.1999 18.5861C59.4266 18.4413 59.6526 18.2977 59.8798 18.1541C60.0393 18.0554 60.1969 17.9579 60.3537 17.8604C60.5896 17.7149 60.8251 17.5679 61.059 17.425C61.1206 17.388 61.1807 17.3521 61.2427 17.315C61.7722 16.993 62.2998 16.6812 62.8252 16.3766C62.9529 16.3025 63.0822 16.2261 63.2115 16.1521C63.4541 16.0122 63.6964 15.8758 63.939 15.7393C64.0543 15.6743 64.1707 15.6086 64.2864 15.5432C58.1926 10.1577 52.1325 5.60794 46.3294 2C40.5248 5.60794 34.4647 10.1577 28.3718 15.5432C28.4901 15.6105 28.6084 15.6777 28.7289 15.745Z" fill="#1E2790"></path> <path d="M78.9853 31.0419C78.7377 31.1768 78.4883 31.3151 78.2381 31.4546C78.1092 31.5253 77.9799 31.5979 77.8507 31.6708C77.6065 31.8088 77.3586 31.949 77.1107 32.0903C76.9882 32.161 76.8661 32.234 76.7422 32.3046C76.1919 32.6232 75.6412 32.9506 75.0852 33.2873C75.0466 33.3119 75.0073 33.3349 74.9669 33.3595C74.7295 33.505 74.4907 33.6535 74.2518 33.8006C74.0957 33.8958 73.9415 33.9918 73.7877 34.0889C73.5594 34.2322 73.3307 34.3777 73.1006 34.5247C72.9347 34.6306 72.768 34.7368 72.5998 34.8449C72.3749 34.99 72.15 35.1355 71.9251 35.284C71.7501 35.3989 71.5729 35.5157 71.3979 35.6325C71.0192 35.8842 70.6401 36.139 70.2591 36.3975C70.0611 36.532 69.8627 36.6666 69.6665 36.803C69.456 36.9478 69.2451 37.0952 69.0327 37.2437C68.8395 37.3779 68.6449 37.5147 68.448 37.6527C68.2412 37.8012 68.0322 37.9501 67.8232 38.0986C67.618 38.2457 67.4143 38.3927 67.2113 38.5412C67.011 38.6864 66.8107 38.83 66.6088 38.9785C66.3507 39.1679 66.0899 39.3606 65.8303 39.5553C65.5646 39.7541 65.2992 39.954 65.0317 40.1555C64.7731 40.3524 64.5127 40.5489 64.2546 40.7473C64.0667 40.8925 63.8789 41.0372 63.6914 41.1827C63.4632 41.3596 63.2349 41.5365 63.0062 41.7172C62.8187 41.8657 62.6294 42.015 62.4397 42.1635C62.2522 42.314 62.0644 42.4644 61.8769 42.6144C62.2613 43.0219 62.6449 43.4312 63.0296 43.8435C63.1479 43.9724 63.2685 44.1036 63.3872 44.2328C63.6865 44.5567 63.987 44.8829 64.2844 45.2098C64.4281 45.364 64.5694 45.5216 64.7112 45.6777C65.0033 45.9997 65.2958 46.3255 65.5876 46.6513C65.7131 46.7927 65.8409 46.9344 65.9682 47.0758C66.3806 47.5414 66.791 48.0071 67.2038 48.478C67.6146 48.9489 68.0216 49.4217 68.4257 49.8945C68.5512 50.0416 68.6751 50.1882 68.8025 50.3352C69.0841 50.6678 69.3656 51.0012 69.6449 51.3338C69.7829 51.4963 69.9193 51.6611 70.0577 51.8259C70.3411 52.1657 70.6227 52.5054 70.9039 52.8471C71.0192 52.9873 71.136 53.1268 71.249 53.2651C71.6368 53.7395 72.0227 54.2138 72.4051 54.6885C72.4596 54.7577 72.5128 54.8265 72.568 54.8937C72.8953 55.3027 73.223 55.7135 73.545 56.1221C73.6728 56.2831 73.7968 56.443 73.9219 56.6021C74.177 56.9298 74.4317 57.2552 74.6834 57.5829C74.8165 57.7529 74.9473 57.9211 75.0761 58.0908C75.2394 58.3036 75.4004 58.5138 75.5614 58.7266C75.572 58.7197 75.5811 58.7126 75.5902 58.705C75.8464 58.4983 76.1034 58.2911 76.36 58.0874C76.5384 57.9457 76.7157 57.8059 76.8929 57.6679C77.1371 57.4767 77.3798 57.2873 77.622 57.0998C77.7955 56.963 77.9709 56.8266 78.1443 56.692C78.435 56.4709 78.7234 56.2517 79.0121 56.034C79.2189 55.8783 79.426 55.7207 79.6335 55.5665C79.9325 55.3435 80.2299 55.122 80.5292 54.9028C80.7133 54.7682 80.8974 54.6337 81.0814 54.5007C81.3044 54.3397 81.5255 54.1786 81.747 54.021C81.9435 53.8808 82.1386 53.7414 82.3347 53.6015C82.5475 53.4511 82.7595 53.3041 82.9719 53.1555C83.1666 53.0187 83.3612 52.883 83.5548 52.7477C83.8023 52.5784 84.0483 52.4117 84.2948 52.2435C84.6043 52.0326 84.9139 51.8259 85.2223 51.6203C85.4294 51.4823 85.638 51.3444 85.8455 51.2098C86.0541 51.0719 86.265 50.9354 86.4737 50.8009C86.66 50.6822 86.8441 50.5635 87.0262 50.4464C87.242 50.3084 87.4583 50.1723 87.6741 50.0359C87.8475 49.9263 88.0229 49.8182 88.1964 49.7105C88.4179 49.5737 88.6371 49.438 88.8567 49.3049C88.9927 49.2214 89.1273 49.1402 89.2637 49.0589C89.7048 48.7932 90.1455 48.5332 90.5813 48.278C90.7332 48.1915 90.8836 48.1031 91.0322 48.0161C91.2642 47.8831 91.4944 47.7523 91.7261 47.6234C91.8731 47.5399 92.0205 47.4568 92.169 47.3755C92.3319 47.2852 92.4945 47.1926 92.6577 47.1022C89.142 42.2111 85.2824 37.3288 81.1083 32.5435C80.5822 31.9399 80.053 31.345 79.5254 30.752C79.4513 30.7924 79.3765 30.8317 79.302 30.8726C79.1962 30.9293 79.0915 30.9837 78.9853 31.0419Z" fill="#00A1E9"></path> <path d="M46.5456 28.1936C46.6628 28.2896 46.7777 28.3883 46.8945 28.4858C47.1949 28.7356 47.4981 28.9885 47.7989 29.2455C47.9618 29.3815 48.1228 29.5199 48.2838 29.6578C48.5495 29.8827 48.8114 30.1091 49.0752 30.3374C49.2385 30.4776 49.401 30.6174 49.562 30.7603C49.8527 31.012 50.1411 31.2668 50.4313 31.5238C50.5606 31.6372 50.6898 31.7506 50.8191 31.867C51.2296 32.2302 51.6385 32.5983 52.0478 32.9721C52.1612 33.073 52.2746 33.1773 52.3857 33.2801C52.6957 33.5613 53.0037 33.8448 53.3117 34.1313C53.4637 34.2711 53.6145 34.4128 53.7668 34.5527C54.0446 34.8146 54.3246 35.0765 54.6039 35.3407C54.7528 35.4806 54.9014 35.6223 55.0499 35.7637C55.3742 36.0717 55.7 36.3835 56.0243 36.6987C56.1195 36.789 56.2133 36.8786 56.307 36.9712C56.725 37.3745 57.1392 37.7834 57.5554 38.1946C57.6687 38.3073 57.7836 38.4207 57.897 38.534C58.2051 38.8425 58.5131 39.1505 58.8226 39.4619C58.9663 39.6071 59.108 39.7522 59.2528 39.8973C59.5434 40.1929 59.8333 40.4888 60.1239 40.7878C60.2585 40.928 60.393 41.066 60.5295 41.2054C60.8923 41.583 61.257 41.9632 61.6199 42.3457C61.6732 42.4024 61.728 42.4576 61.7824 42.5158C61.8126 42.5471 61.8447 42.5808 61.8765 42.6144C62.064 42.4644 62.2518 42.314 62.4393 42.165C62.629 42.015 62.8183 41.8657 63.0058 41.7172C63.2345 41.5388 63.4628 41.3596 63.6911 41.1827C63.8785 41.0372 64.0664 40.8925 64.2542 40.7473C64.5123 40.5489 64.7728 40.3524 65.0313 40.1555C65.2989 39.954 65.5642 39.7541 65.8299 39.5553C66.0895 39.3629 66.3503 39.1694 66.6085 38.9785C66.8103 38.8319 67.0106 38.6864 67.2109 38.5412C67.4139 38.3927 67.6176 38.2457 67.8228 38.1005C68.0303 37.9501 68.2409 37.8012 68.4476 37.6546C68.6445 37.5147 68.8376 37.3802 69.0323 37.2437C69.2447 37.0967 69.4556 36.9478 69.6661 36.803C69.8623 36.6666 70.0607 36.5339 70.2587 36.3975C70.6397 36.139 71.0188 35.8842 71.3975 35.6325C71.5725 35.5157 71.7498 35.3989 71.9248 35.284C72.1496 35.137 72.3745 34.99 72.5994 34.8449C72.7676 34.7368 72.9343 34.6306 73.1002 34.5247C73.3304 34.3777 73.559 34.2322 73.7873 34.0889C73.9411 33.9918 74.0953 33.8958 74.2514 33.8021C74.4903 33.6535 74.7273 33.505 74.9665 33.3595C75.0051 33.3364 75.0459 33.3119 75.0848 33.2888C75.6408 32.9506 76.1915 32.6248 76.7418 32.3046C76.8657 32.234 76.9878 32.161 77.1103 32.0903C77.3582 31.949 77.6039 31.8088 77.8499 31.6708C77.9795 31.5979 78.1088 31.5253 78.2377 31.4546C78.4871 31.3152 78.7374 31.1783 78.9849 31.0419C79.0911 30.986 79.1958 30.9293 79.3016 30.8726C79.3761 30.8317 79.4509 30.7924 79.5231 30.752C74.5099 25.1402 69.386 20.0522 64.2863 15.5447C64.1707 15.6086 64.0543 15.6743 63.939 15.7393C63.6964 15.8758 63.4541 16.0122 63.2114 16.1521C63.0822 16.2261 62.9529 16.3025 62.8252 16.3766C62.2994 16.6812 61.7722 16.9945 61.2427 17.315C61.1807 17.3521 61.1206 17.388 61.059 17.4265C60.825 17.5679 60.5896 17.7149 60.3537 17.8604C60.1961 17.9579 60.0393 18.0554 59.8798 18.1541C59.6526 18.2977 59.4266 18.4413 59.1983 18.5861C59.0301 18.6942 58.8601 18.8019 58.6919 18.9119C58.4685 19.0555 58.2455 19.1991 58.0225 19.3454C57.8422 19.4644 57.6616 19.585 57.4809 19.7052C57.1147 19.9478 56.7462 20.1954 56.378 20.4449C56.1705 20.5866 55.9638 20.7264 55.7582 20.87C55.5515 21.0114 55.3421 21.1584 55.1353 21.3036C54.9365 21.4415 54.7404 21.5795 54.5423 21.7197C54.3348 21.8648 54.1277 22.0137 53.921 22.1623C53.7154 22.3093 53.5101 22.4578 53.3026 22.6067C53.1046 22.7519 52.9047 22.8955 52.7062 23.0418C52.4462 23.2315 52.1858 23.4261 51.9239 23.6212C51.6604 23.8192 51.3928 24.0195 51.1253 24.2214C50.8667 24.416 50.6086 24.6125 50.3478 24.8125C50.1622 24.9557 49.9732 25.1027 49.7869 25.2479C49.5586 25.4251 49.3304 25.6024 49.1021 25.7808C48.9142 25.9293 48.7245 26.0786 48.5374 26.2271C48.2944 26.4195 48.0521 26.6146 47.8114 26.8092C47.6398 26.9456 47.4682 27.0821 47.2977 27.2215C46.9742 27.4842 46.6514 27.7495 46.3294 28.0164C46.4005 28.0753 46.473 28.1335 46.5456 28.1936Z" fill="#0065B7"></path> <path d="M0.933551 47.6234C1.16335 47.7523 1.39163 47.8816 1.62331 48.0142C1.77412 48.1012 1.92642 48.1892 2.07723 48.278C2.51074 48.5309 2.94614 48.7879 3.38343 49.0513C3.52328 49.1349 3.66123 49.218 3.80145 49.3027C4.02066 49.4357 4.24063 49.5722 4.45984 49.7082C4.63332 49.8163 4.81021 49.9263 4.98558 50.0359C5.19988 50.1705 5.41568 50.3069 5.62998 50.4449C5.81405 50.562 5.99849 50.6803 6.18407 50.7986C6.3927 50.9354 6.6036 51.0696 6.81223 51.2079C7.01973 51.3444 7.22835 51.4823 7.43546 51.6203C7.74576 51.8259 8.05341 52.0326 8.36333 52.2435C8.60938 52.4102 8.85506 52.5784 9.103 52.7477C9.29651 52.8808 9.49115 53.0172 9.6858 53.1533C9.89821 53.3026 10.1106 53.4511 10.3245 53.6015C10.5199 53.7395 10.7146 53.8797 10.9107 54.0191C11.1318 54.1786 11.3552 54.3378 11.5767 54.4988C11.7607 54.6337 11.9444 54.7664 12.1285 54.9028C12.4278 55.122 12.7287 55.3454 13.028 55.568C13.2336 55.7207 13.437 55.8749 13.6426 56.0302C13.9328 56.2479 14.2231 56.4694 14.5134 56.692C14.6869 56.8266 14.8622 56.9615 15.0357 57.0961C15.278 57.2854 15.521 57.4751 15.7648 57.6664C15.942 57.8059 16.1193 57.9457 16.2977 58.0874C16.5547 58.2911 16.811 58.4964 17.0695 58.7035C17.0785 58.7107 17.0857 58.7175 17.0963 58.7247C17.2558 58.5138 17.4168 58.3036 17.5778 58.0927C17.7105 57.9226 17.8435 57.7492 17.9766 57.5795C18.2271 57.2537 18.4789 56.9298 18.7336 56.6059C18.8595 56.443 18.985 56.2816 19.1146 56.1206C19.4332 55.715 19.7552 55.3099 20.081 54.9043C20.1392 54.8321 20.1959 54.7592 20.2545 54.6866C20.6351 54.2123 21.021 53.7395 21.4069 53.2651C21.5237 53.1253 21.6393 52.9836 21.7557 52.8437C22.0358 52.5039 22.317 52.1638 22.5985 51.8259C22.7365 51.6611 22.8748 51.4963 23.0128 51.3304C23.2921 50.9989 23.5737 50.6678 23.8552 50.3352C23.9792 50.1882 24.1066 50.0397 24.2324 49.8927C24.6361 49.4198 25.0432 48.9489 25.454 48.478C25.8644 48.0071 26.2772 47.5414 26.688 47.0777C26.8169 46.9329 26.9465 46.7893 27.0754 46.6457C27.3642 46.3221 27.6544 45.9997 27.9432 45.6811C28.0883 45.5216 28.2316 45.3625 28.3752 45.2049C28.6707 44.8806 28.9663 44.5586 29.2637 44.2381C29.3858 44.1055 29.5079 43.9724 29.6319 43.8401C30.014 43.4289 30.3965 43.02 30.7809 42.6144C30.5896 42.4625 30.3999 42.3083 30.2109 42.1579C30.0268 42.0112 29.8424 41.868 29.6602 41.7225C29.4229 41.5388 29.1893 41.3543 28.9557 41.1737C28.7732 41.0323 28.591 40.8902 28.4103 40.7507C28.1378 40.5414 27.8653 40.3346 27.5943 40.1309C27.3521 39.9468 27.1109 39.7647 26.8687 39.5855C26.5924 39.3803 26.3176 39.1751 26.0436 38.9732C25.847 38.83 25.6543 38.6883 25.4589 38.5484C25.2488 38.3961 25.0379 38.2438 24.8273 38.0937C24.6236 37.9467 24.4203 37.8012 24.2166 37.658C24.0147 37.5147 23.8129 37.373 23.6107 37.2331C23.4055 37.0895 23.2025 36.9466 22.9988 36.8064C22.7822 36.6579 22.5687 36.5124 22.3544 36.3654C21.9965 36.1231 21.6408 35.8842 21.2848 35.6488C21.0992 35.5248 20.9129 35.4008 20.7288 35.2803C20.5077 35.1355 20.2862 34.9919 20.0651 34.8505C19.8932 34.7383 19.7216 34.629 19.55 34.5191C19.3251 34.3754 19.1006 34.2322 18.8757 34.0905C18.7147 33.9895 18.5548 33.8924 18.3938 33.7934C18.1621 33.6479 17.9282 33.5031 17.695 33.3614C17.6292 33.3209 17.5639 33.2816 17.4981 33.2423C16.9742 32.9237 16.4519 32.6161 15.9315 32.3129C15.8003 32.2374 15.6711 32.161 15.5422 32.0869C15.2976 31.9467 15.0554 31.8103 14.8124 31.6742C14.6801 31.5979 14.547 31.5238 14.4159 31.4493C14.1679 31.3129 13.9223 31.1768 13.6762 31.0442C13.5644 30.9837 13.4551 30.9255 13.3451 30.8654C13.2745 30.8261 13.2034 30.789 13.1327 30.752C12.6032 31.3431 12.0756 31.9399 11.5499 32.5416C7.37536 37.3269 3.51647 42.2111 0 47.1022C0.163276 47.1911 0.32618 47.2829 0.4887 47.3732C0.635723 47.4568 0.784259 47.5399 0.933551 47.6234Z" fill="#00A1E9"></path> <path d="M60.0215 72.546C59.8942 72.3827 59.7668 72.2183 59.6375 72.0551C59.3204 71.6514 59.0003 71.2496 58.676 70.846C58.6159 70.7719 58.5577 70.6974 58.4991 70.623C58.1186 70.1487 57.7327 69.6758 57.3468 69.203C57.23 69.0617 57.1128 68.9203 56.996 68.7786C56.7167 68.4403 56.437 68.102 56.1536 67.7623C56.0171 67.5975 55.8792 67.4327 55.7409 67.2683C55.4615 66.9353 55.18 66.6042 54.8965 66.2716C54.7725 66.1246 54.6471 65.978 54.5197 65.829C54.116 65.3581 53.7086 64.8857 53.2997 64.4147C52.8892 63.9434 52.4765 63.4778 52.0641 63.014C51.9367 62.8708 51.8071 62.7291 51.6797 62.5858C51.3899 62.26 51.0992 61.9361 50.8071 61.6156C50.6657 61.458 50.5221 61.3004 50.3803 61.1451C50.0829 60.8193 49.7839 60.495 49.4861 60.173C49.3644 60.0418 49.2438 59.9088 49.1218 59.778C48.7094 59.3339 48.2948 58.8913 47.879 58.4522C47.8224 58.3921 47.7657 58.3339 47.7075 58.2734C47.348 57.8947 46.9886 57.5194 46.6273 57.1452C46.5286 57.0409 46.4292 56.94 46.3298 56.8379C46.2274 56.94 46.1265 57.0447 46.0256 57.1475C45.6714 57.5156 45.3177 57.8856 44.9631 58.259C44.9015 58.3248 44.8396 58.3883 44.7757 58.454C44.3618 58.8913 43.9491 59.3317 43.5368 59.7765C43.4128 59.9088 43.2903 60.0433 43.1664 60.1783C42.8708 60.4984 42.5752 60.8193 42.2797 61.1428C42.1361 61.3004 41.9909 61.458 41.8496 61.6156C41.5589 61.9376 41.2668 62.26 40.9784 62.5843C40.851 62.7276 40.7214 62.8708 40.594 63.014C40.1813 63.4778 39.7689 63.9434 39.3585 64.4147C38.948 64.8857 38.5425 65.3581 38.1369 65.829C38.0111 65.9761 37.8856 66.1246 37.7616 66.2716C37.4785 66.6042 37.1951 66.9376 36.9154 67.2717C36.779 67.4346 36.6425 67.596 36.5065 67.7589C36.2196 68.1002 35.9365 68.4441 35.6549 68.7873C35.5415 68.9252 35.4266 69.0632 35.3133 69.2015C34.924 69.6758 34.5381 70.1505 34.1571 70.6268C34.1023 70.694 34.0513 70.7613 33.9961 70.8267C33.6669 71.2375 33.3396 71.6503 33.0153 72.0607C32.8913 72.2202 32.7674 72.3771 32.6434 72.5369C32.5765 72.6216 32.5111 72.707 32.4438 72.7917C32.5357 72.8869 32.6275 72.9829 32.7213 73.0782C33.0848 73.4557 33.4473 73.8345 33.8101 74.2169C33.8649 74.2736 33.9201 74.3303 33.9734 74.387C34.3895 74.8254 34.8053 75.2703 35.2195 75.7144C35.3397 75.8452 35.4603 75.9763 35.5809 76.1059C35.8798 76.4299 36.1788 76.7557 36.4781 77.0814C36.6179 77.2368 36.7597 77.3929 36.901 77.5486C37.1951 77.8729 37.4857 78.1964 37.7779 78.5241C37.9053 78.6654 38.0307 78.8072 38.16 78.9493C38.5727 79.4142 38.9832 79.8798 39.394 80.3511C39.8045 80.822 40.21 81.2926 40.6156 81.7639C40.741 81.9124 40.8684 82.061 40.9943 82.2099C41.2758 82.5406 41.5574 82.874 41.8348 83.2047C41.9735 83.3691 42.1115 83.5323 42.2495 83.6968C42.5325 84.0365 42.8141 84.3767 43.0942 84.7187C43.2106 84.8582 43.3259 84.998 43.4408 85.1398C43.8285 85.6122 44.2148 86.085 44.595 86.5597C44.6536 86.6319 44.7103 86.7049 44.7666 86.7771C45.0928 87.1826 45.4148 87.5882 45.7353 87.9933C45.8627 88.1566 45.9885 88.3176 46.1159 88.4786C46.187 88.5689 46.2576 88.6589 46.3298 88.7511C46.399 88.6589 46.4719 88.5689 46.5426 88.4786C46.6681 88.3157 46.7955 88.1547 46.9228 87.9933C47.2437 87.5866 47.5672 87.1788 47.893 86.7722C47.9497 86.7026 48.0064 86.6319 48.0631 86.5613C48.4441 86.0869 48.8277 85.6122 49.2159 85.1398C49.3308 84.998 49.4476 84.8582 49.5625 84.7187C49.844 84.3767 50.1256 84.0365 50.4087 83.6968C50.547 83.5323 50.6831 83.3691 50.821 83.2047C51.0992 82.874 51.3808 82.5406 51.6624 82.2099C51.7897 82.061 51.9156 81.9124 52.043 81.7639C52.4466 81.2926 52.8537 80.822 53.2626 80.3511C53.6735 79.8798 54.0862 79.4142 54.4985 78.9493C54.6259 78.8072 54.7533 78.6654 54.8787 78.5241C55.1709 78.1964 55.4631 77.8729 55.7552 77.5486C55.8969 77.3929 56.0402 77.2368 56.18 77.0814C56.4794 76.7557 56.7768 76.4299 57.078 76.1059C57.1979 75.9763 57.318 75.8452 57.4386 75.7144C57.8532 75.2703 58.2694 74.8254 58.6832 74.387C58.7384 74.3303 58.7932 74.2736 58.8461 74.2169C59.2112 73.8345 59.5718 73.4557 59.9369 73.0782C60.0287 72.9829 60.1225 72.8869 60.2147 72.7917C60.1489 72.7104 60.0854 72.6273 60.0215 72.546Z" fill="#00D1F9"></path> <path d="M13.6763 31.0442C13.9223 31.1783 14.168 31.3129 14.4159 31.4508C14.5471 31.5253 14.6801 31.6001 14.8143 31.6742C15.0554 31.8103 15.2996 31.949 15.5422 32.0884C15.6711 32.1625 15.8019 32.2389 15.9315 32.3129C16.4519 32.6161 16.9743 32.926 17.5 33.2423C17.5639 33.2835 17.6293 33.3225 17.695 33.3614C17.9282 33.5031 18.1622 33.6479 18.3961 33.7934C18.5549 33.8924 18.7162 33.9918 18.8757 34.0927C19.1006 34.2322 19.3251 34.3754 19.55 34.5191C19.7216 34.629 19.8955 34.7405 20.0671 34.8505C20.2863 34.9934 20.5078 35.1355 20.7289 35.2803C20.9129 35.4023 21.1008 35.5263 21.2848 35.6488C21.6409 35.8857 21.9965 36.125 22.3544 36.3672C22.5687 36.5124 22.7845 36.6579 22.9988 36.8064C23.2026 36.9478 23.4078 37.0895 23.6107 37.2331C23.813 37.3745 24.0148 37.5147 24.2166 37.658C24.4203 37.8031 24.6237 37.9482 24.8293 38.0937C25.0379 38.2438 25.2488 38.3961 25.4589 38.5484C25.654 38.6898 25.849 38.8319 26.0436 38.9732C26.3176 39.1751 26.5943 39.3803 26.8687 39.5855C27.111 39.7662 27.3521 39.9468 27.5944 40.1309C27.8654 40.3361 28.1379 40.5414 28.4104 40.7523C28.591 40.8902 28.7732 41.0323 28.9558 41.1737C29.1893 41.3558 29.4252 41.5388 29.6603 41.7225C29.8424 41.868 30.0269 42.0127 30.2109 42.1579C30.4022 42.3083 30.5912 42.461 30.7824 42.6144C30.8126 42.5831 30.8425 42.5494 30.8727 42.5173C30.9351 42.4534 30.9967 42.3899 31.0568 42.3245C31.4128 41.9511 31.7685 41.5792 32.123 41.2111C32.2643 41.066 32.4042 40.9204 32.5459 40.7753C32.8294 40.4854 33.1125 40.1948 33.3956 39.9064C33.5445 39.7556 33.693 39.6037 33.8434 39.4532C34.1428 39.1505 34.4436 38.8493 34.7449 38.5503C34.8654 38.4297 34.9871 38.3095 35.1077 38.189C35.52 37.7819 35.9328 37.3764 36.3451 36.9765C36.4494 36.8752 36.5541 36.7743 36.6603 36.6734C36.9736 36.371 37.2851 36.0683 37.6003 35.7708C37.7556 35.6223 37.9098 35.4753 38.0659 35.3283C38.3365 35.0716 38.6075 34.8184 38.8785 34.5652C39.0376 34.4181 39.1949 34.2696 39.3547 34.1226C39.6522 33.8482 39.9478 33.5757 40.2448 33.3047C40.3688 33.1913 40.4912 33.0779 40.6152 32.9649C41.0208 32.5983 41.4255 32.234 41.8311 31.8726C41.9709 31.7464 42.1127 31.6232 42.2563 31.4973C42.5307 31.2528 42.8085 31.0105 43.0848 30.7694C43.2548 30.6209 43.4264 30.4719 43.5965 30.3253C43.8494 30.1057 44.1022 29.8876 44.3573 29.6722C44.5274 29.5271 44.6975 29.38 44.8672 29.2364C45.154 28.9941 45.4409 28.7553 45.7259 28.5157C45.8567 28.4064 45.9882 28.2964 46.1193 28.1887C46.19 28.1298 46.2588 28.0731 46.3295 28.0149C46.0037 27.7461 45.6783 27.4786 45.3525 27.2147C45.1915 27.0836 45.0301 26.9562 44.8691 26.8251C44.6162 26.6221 44.363 26.4195 44.1098 26.2181C43.9291 26.0745 43.7484 25.9331 43.5678 25.7914C43.3289 25.6039 43.0916 25.418 42.8542 25.2339C42.6758 25.094 42.4952 24.9538 42.3179 24.8178C42.0382 24.6035 41.7604 24.3929 41.4822 24.182C41.2539 24.0089 41.0257 23.8389 40.7974 23.6673C40.5124 23.4545 40.2274 23.2443 39.9443 23.035C39.7531 22.8955 39.5619 22.7591 39.3721 22.6207C39.1578 22.4635 38.942 22.3074 38.7262 22.1532C38.5263 22.0103 38.326 21.8667 38.126 21.7265C37.9189 21.5795 37.7118 21.4347 37.5043 21.2911C37.3062 21.1516 37.1063 21.0114 36.9064 20.8734C36.6743 20.714 36.4441 20.5563 36.2121 20.3987C35.8795 20.1739 35.5484 19.9512 35.2177 19.7313C35.0207 19.6005 34.8242 19.4694 34.6281 19.3405C34.4115 19.1991 34.198 19.0604 33.9803 18.9209C33.803 18.8057 33.6257 18.6927 33.4485 18.5793C33.2274 18.4375 33.0059 18.2977 32.7848 18.1597C32.6185 18.0554 32.4522 17.9523 32.2859 17.8479C32.0572 17.7081 31.8308 17.5664 31.606 17.4284C31.5032 17.3664 31.4022 17.306 31.3013 17.2459C30.8179 16.9537 30.3364 16.6687 29.8587 16.3913C29.7185 16.3093 29.5805 16.228 29.4407 16.1483C29.2037 16.0122 28.9663 15.8773 28.729 15.745C28.6107 15.6777 28.4901 15.6105 28.3718 15.5447C23.2713 20.0499 18.1497 25.1402 13.1343 30.752C13.205 30.7906 13.2745 30.8283 13.3467 30.8654C13.4567 30.9255 13.5663 30.9837 13.6763 31.0442Z" fill="#0065B7"></path> </svg> 